<svg xmlns="http://www.w3.org/2000/svg" xmlns:xlink="http://www.w3.org/1999/xlink" width="16" height="1616" viewBox="0 0 16 1616">
<style>@media (prefers-color-scheme: light){.ink{fill:#000000;fill-opacity:0.894}}@media (prefers-color-scheme: dark){.ink{fill:#FFFFFF}}</style><defs><path id="v0" class="ink" d="M3.3,11L1.5,11L1.46,11L1.42,11L1.39,11L1.35,10.99L1.31,10.99L1.28,10.98L1.24,10.98L1.2,10.97L1.17,10.96L1.13,10.95L1.1,10.94L1.06,10.93L1.03,10.92L0.99,10.91L0.96,10.9L0.92,10.88L0.89,10.87L0.85,10.85L0.82,10.84L0.79,10.82L0.76,10.8L0.73,10.78L0.7,10.76L0.67,10.74L0.64,10.72L0.61,10.7L0.58,10.68L0.55,10.66L0.52,10.63L0.49,10.61L0.47,10.58L0.44,10.56L0.42,10.53L0.39,10.51L0.37,10.48L0.34,10.45L0.32,10.42L0.3,10.39L0.28,10.36L0.26,10.33L0.24,10.3L0.22,10.27L0.2,10.24L0.18,10.21L0.16,10.18L0.15,10.15L0.13,10.11L0.12,10.08L0.1,10.04L0.09,10.01L0.08,9.97L0.07,9.94L0.06,9.9L0.05,9.87L0.04,9.83L0.03,9.8L0.02,9.76L0.02,9.72L0.01,9.69L0.01,9.65L0.00,9.61L0.00,9.58L0,9.54L0,9.5L0,6.5L0,6.46L0.00,6.42L0.00,6.39L0.01,6.35L0.01,6.31L0.02,6.28L0.02,6.24L0.03,6.2L0.04,6.17L0.05,6.13L0.06,6.1L0.07,6.06L0.08,6.03L0.09,5.99L0.1,5.96L0.12,5.92L0.13,5.89L0.15,5.85L0.16,5.82L0.18,5.79L0.2,5.76L0.22,5.73L0.24,5.7L0.26,5.67L0.28,5.64L0.3,5.61L0.32,5.58L0.34,5.55L0.37,5.52L0.39,5.49L0.42,5.47L0.44,5.44L0.47,5.42L0.49,5.39L0.52,5.37L0.55,5.34L0.58,5.32L0.61,5.3L0.64,5.28L0.67,5.26L0.7,5.24L0.73,5.22L0.76,5.2L0.79,5.18L0.82,5.16L0.85,5.15L0.89,5.13L0.92,5.12L0.96,5.1L0.99,5.09L1.03,5.08L1.06,5.07L1.1,5.06L1.13,5.05L1.17,5.04L1.2,5.03L1.24,5.02L1.28,5.02L1.31,5.01L1.35,5.01L1.39,5L1.42,5L1.46,5L1.5,5L3.3,5L5.72,2.57L5.75,2.54L5.78,2.52L5.8,2.5L5.83,2.48L5.87,2.46L5.9,2.44L5.93,2.42L5.96,2.41L6,2.4L6.03,2.39L6.07,2.38L6.1,2.37L6.14,2.37L6.18,2.36L6.21,2.36L6.25,2.36L6.29,2.36L6.33,2.36L6.37,2.37L6.4,2.37L6.44,2.38L6.48,2.39L6.51,2.4L6.54,2.41L6.58,2.43L6.61,2.44L6.64,2.46L6.67,2.48L6.7,2.5L6.73,2.52L6.76,2.54L6.79,2.57L6.81,2.6L6.84,2.62L6.86,2.65L6.88,2.68L6.9,2.71L6.92,2.74L6.93,2.78L6.95,2.81L6.96,2.84L6.97,2.88L6.98,2.91L6.99,2.95L6.99,2.99L7,3.02L7,3.06L7,3.1L7,12.9L7,12.94L7,12.98L6.99,13.01L6.99,13.05L6.98,13.08L6.97,13.12L6.96,13.15L6.94,13.19L6.93,13.22L6.91,13.25L6.89,13.28L6.87,13.31L6.85,13.34L6.83,13.37L6.81,13.4L6.78,13.43L6.76,13.45L6.73,13.48L6.7,13.5L6.67,13.52L6.64,13.54L6.61,13.56L6.58,13.57L6.54,13.59L6.51,13.6L6.47,13.62L6.44,13.63L6.4,13.63L6.36,13.64L6.33,13.64L6.29,13.65L6.25,13.65L6.21,13.65L6.17,13.65L6.14,13.64L6.1,13.63L6.06,13.63L6.03,13.62L5.99,13.61L5.96,13.59L5.93,13.58L5.9,13.56L5.86,13.55L5.83,13.53L5.8,13.5L5.77,13.48L5.75,13.46L5.72,13.43ZM6,12.29L6,3.7L3.85,5.85L3.83,5.87L3.81,5.89L3.79,5.9L3.77,5.92L3.75,5.93L3.73,5.94L3.71,5.95L3.69,5.96L3.67,5.97L3.64,5.98L3.62,5.99L3.6,5.99L3.57,5.99L3.55,6L3.53,6L3.5,6L1.5,6L1.47,6L1.45,6L1.43,6.01L1.4,6.01L1.38,6.01L1.36,6.02L1.33,6.03L1.31,6.04L1.29,6.05L1.27,6.06L1.25,6.07L1.23,6.08L1.21,6.1L1.19,6.11L1.17,6.13L1.15,6.15L1.13,6.17L1.11,6.19L1.1,6.21L1.08,6.23L1.07,6.25L1.06,6.27L1.05,6.29L1.04,6.31L1.03,6.33L1.02,6.36L1.01,6.38L1.01,6.4L1.01,6.43L1,6.45L1,6.47L1,6.5L1,9.5L1,9.53L1,9.55L1.01,9.57L1.01,9.6L1.01,9.62L1.02,9.64L1.03,9.67L1.04,9.69L1.05,9.71L1.06,9.73L1.07,9.75L1.08,9.77L1.1,9.79L1.11,9.81L1.13,9.83L1.15,9.85L1.17,9.87L1.19,9.89L1.21,9.9L1.23,9.92L1.25,9.93L1.27,9.94L1.29,9.95L1.31,9.96L1.33,9.97L1.36,9.98L1.38,9.99L1.4,9.99L1.43,9.99L1.45,10L1.47,10L1.5,10L3.5,10L3.53,10L3.55,10L3.57,10.01L3.6,10.01L3.62,10.01L3.64,10.02L3.67,10.03L3.69,10.04L3.71,10.05L3.73,10.06L3.75,10.07L3.77,10.08L3.79,10.1L3.81,10.11L3.83,10.13L3.85,10.15Z"/><path id="v1" class="ink" d="M3.3,11L1.5,11L1.46,11L1.42,11L1.39,11L1.35,10.99L1.31,10.99L1.28,10.98L1.24,10.98L1.2,10.97L1.17,10.96L1.13,10.95L1.1,10.94L1.06,10.93L1.03,10.92L0.99,10.91L0.96,10.9L0.92,10.88L0.89,10.87L0.85,10.85L0.82,10.84L0.79,10.82L0.76,10.8L0.73,10.78L0.7,10.76L0.67,10.74L0.64,10.72L0.61,10.7L0.58,10.68L0.55,10.66L0.52,10.63L0.49,10.61L0.47,10.58L0.44,10.56L0.42,10.53L0.39,10.51L0.37,10.48L0.34,10.45L0.32,10.42L0.3,10.39L0.28,10.36L0.26,10.33L0.24,10.3L0.22,10.27L0.2,10.24L0.18,10.21L0.16,10.18L0.15,10.15L0.13,10.11L0.12,10.08L0.1,10.04L0.09,10.01L0.08,9.97L0.07,9.94L0.06,9.9L0.05,9.87L0.04,9.83L0.03,9.8L0.02,9.76L0.02,9.72L0.01,9.69L0.01,9.65L0.00,9.61L0.00,9.58L0,9.54L0,9.5L0,6.5L0,6.46L0.00,6.42L0.00,6.39L0.01,6.35L0.01,6.31L0.02,6.28L0.02,6.24L0.03,6.2L0.04,6.17L0.05,6.13L0.06,6.1L0.07,6.06L0.08,6.03L0.09,5.99L0.1,5.96L0.12,5.92L0.13,5.89L0.15,5.85L0.16,5.82L0.18,5.79L0.2,5.76L0.22,5.73L0.24,5.7L0.26,5.67L0.28,5.64L0.3,5.61L0.32,5.58L0.34,5.55L0.37,5.52L0.39,5.49L0.42,5.47L0.44,5.44L0.47,5.42L0.49,5.39L0.52,5.37L0.55,5.34L0.58,5.32L0.61,5.3L0.64,5.28L0.67,5.26L0.7,5.24L0.73,5.22L0.76,5.2L0.79,5.18L0.82,5.16L0.85,5.15L0.89,5.13L0.92,5.12L0.96,5.1L0.99,5.09L1.03,5.08L1.06,5.07L1.1,5.06L1.13,5.05L1.17,5.04L1.2,5.03L1.24,5.02L1.28,5.02L1.31,5.01L1.35,5.01L1.39,5L1.42,5L1.46,5L1.5,5L3.3,5L5.72,2.57L5.75,2.54L5.78,2.52L5.8,2.5L5.83,2.48L5.87,2.46L5.9,2.44L5.93,2.42L5.96,2.41L6,2.4L6.03,2.39L6.07,2.38L6.1,2.37L6.14,2.37L6.18,2.36L6.21,2.36L6.25,2.36L6.29,2.36L6.33,2.36L6.37,2.37L6.4,2.37L6.44,2.38L6.48,2.39L6.51,2.4L6.54,2.41L6.58,2.43L6.61,2.44L6.64,2.46L6.67,2.48L6.7,2.5L6.73,2.52L6.76,2.54L6.79,2.57L6.81,2.6L6.84,2.62L6.86,2.65L6.88,2.68L6.9,2.71L6.92,2.74L6.93,2.78L6.95,2.81L6.96,2.84L6.97,2.88L6.98,2.91L6.99,2.95L6.99,2.99L7,3.02L7,3.06L7,3.1L7,12.9L7,12.94L7,12.98L6.99,13.01L6.99,13.05L6.98,13.08L6.97,13.12L6.96,13.15L6.94,13.19L6.93,13.22L6.91,13.25L6.89,13.28L6.87,13.31L6.85,13.34L6.83,13.37L6.81,13.4L6.78,13.43L6.76,13.45L6.73,13.48L6.7,13.5L6.67,13.52L6.64,13.54L6.61,13.56L6.58,13.57L6.54,13.59L6.51,13.6L6.47,13.62L6.44,13.63L6.4,13.63L6.36,13.64L6.33,13.64L6.29,13.65L6.25,13.65L6.21,13.65L6.17,13.65L6.14,13.64L6.1,13.63L6.06,13.63L6.03,13.62L5.99,13.61L5.96,13.59L5.93,13.58L5.9,13.56L5.86,13.55L5.83,13.53L5.8,13.5L5.77,13.48L5.75,13.46L5.72,13.43ZM6,12.29L6,3.7L3.85,5.85L3.83,5.87L3.81,5.89L3.79,5.9L3.77,5.92L3.75,5.93L3.73,5.94L3.71,5.95L3.69,5.96L3.67,5.97L3.64,5.98L3.62,5.99L3.6,5.99L3.57,5.99L3.55,6L3.53,6L3.5,6L1.5,6L1.47,6L1.45,6L1.43,6.01L1.4,6.01L1.38,6.01L1.36,6.02L1.33,6.03L1.31,6.04L1.29,6.05L1.27,6.06L1.25,6.07L1.23,6.08L1.21,6.1L1.19,6.11L1.17,6.13L1.15,6.15L1.13,6.17L1.11,6.19L1.1,6.21L1.08,6.23L1.07,6.25L1.06,6.27L1.05,6.29L1.04,6.31L1.03,6.33L1.02,6.36L1.01,6.38L1.01,6.4L1.01,6.43L1,6.45L1,6.47L1,6.5L1,9.5L1,9.53L1,9.55L1.01,9.57L1.01,9.6L1.01,9.62L1.02,9.64L1.03,9.67L1.04,9.69L1.05,9.71L1.06,9.73L1.07,9.75L1.08,9.77L1.1,9.79L1.11,9.81L1.13,9.83L1.15,9.85L1.17,9.87L1.19,9.89L1.21,9.9L1.23,9.92L1.25,9.93L1.27,9.94L1.29,9.95L1.31,9.96L1.33,9.97L1.36,9.98L1.38,9.99L1.4,9.99L1.43,9.99L1.45,10L1.47,10L1.5,10L3.5,10L3.53,10L3.55,10L3.57,10.01L3.6,10.01L3.62,10.01L3.64,10.02L3.67,10.03L3.69,10.04L3.71,10.05L3.73,10.06L3.75,10.07L3.77,10.08L3.79,10.1L3.81,10.11L3.83,10.13L3.85,10.15ZM8.09,10.54L8.09,10.51L8.1,10.49L8.1,10.47L8.1,10.45L8.1,10.42L8.11,10.4L8.11,10.39L8.12,10.37L8.13,10.35L8.14,10.33L8.15,10.31L8.16,10.29L8.17,10.28L8.18,10.26L8.2,10.24L8.21,10.22L8.26,10.15L8.3,10.09L8.35,10.02L8.39,9.96L8.43,9.9L8.47,9.83L8.51,9.77L8.54,9.7L8.58,9.63L8.61,9.57L8.65,9.5L8.68,9.44L8.71,9.37L8.74,9.31L8.77,9.24L8.79,9.18L8.82,9.11L8.84,9.04L8.86,8.97L8.88,8.9L8.9,8.83L8.92,8.76L8.93,8.69L8.95,8.62L8.96,8.54L8.97,8.47L8.98,8.39L8.99,8.32L8.99,8.24L9,8.16L9,8.08L9,8L9,7.92L9,7.84L8.99,7.76L8.99,7.68L8.98,7.61L8.97,7.53L8.96,7.46L8.95,7.38L8.93,7.31L8.92,7.24L8.9,7.17L8.88,7.1L8.86,7.03L8.84,6.96L8.82,6.89L8.79,6.82L8.77,6.76L8.74,6.69L8.71,6.63L8.68,6.56L8.65,6.5L8.61,6.43L8.58,6.37L8.54,6.3L8.51,6.23L8.47,6.17L8.43,6.1L8.39,6.04L8.35,5.98L8.3,5.91L8.26,5.85L8.21,5.78L8.2,5.76L8.18,5.74L8.17,5.72L8.16,5.71L8.15,5.69L8.14,5.67L8.13,5.65L8.12,5.63L8.11,5.61L8.11,5.6L8.1,5.58L8.1,5.55L8.1,5.53L8.1,5.51L8.09,5.49L8.09,5.46L8.09,5.44L8.1,5.41L8.1,5.39L8.1,5.36L8.11,5.34L8.11,5.32L8.12,5.29L8.13,5.27L8.14,5.25L8.15,5.23L8.16,5.21L8.18,5.19L8.19,5.17L8.21,5.15L8.22,5.13L8.24,5.11L8.26,5.09L8.28,5.07L8.3,5.06L8.32,5.04L8.34,5.03L8.36,5.02L8.38,5.01L8.4,5L8.43,4.99L8.45,4.98L8.47,4.98L8.5,4.97L8.52,4.97L8.54,4.96L8.57,4.96L8.59,4.96L8.62,4.96L8.65,4.96L8.68,4.97L8.71,4.97L8.73,4.98L8.76,4.99L8.78,5L8.81,5.01L8.83,5.02L8.86,5.03L8.88,5.05L8.9,5.07L8.92,5.08L8.94,5.1L8.96,5.13L8.98,5.15L9.05,5.22L9.11,5.3L9.16,5.37L9.22,5.45L9.27,5.53L9.32,5.61L9.37,5.69L9.42,5.78L9.47,5.86L9.51,5.95L9.55,6.04L9.59,6.12L9.63,6.21L9.67,6.3L9.71,6.39L9.74,6.48L9.77,6.58L9.8,6.67L9.83,6.76L9.85,6.86L9.88,6.95L9.9,7.05L9.92,7.14L9.93,7.24L9.95,7.33L9.96,7.43L9.97,7.53L9.98,7.62L9.99,7.72L10,7.81L10,7.91L10,8L10,8.09L10,8.18L9.99,8.28L9.98,8.37L9.97,8.47L9.96,8.56L9.95,8.66L9.93,8.75L9.92,8.85L9.9,8.95L9.88,9.04L9.85,9.14L9.83,9.23L9.8,9.33L9.77,9.42L9.74,9.51L9.71,9.6L9.67,9.7L9.63,9.79L9.59,9.88L9.55,9.96L9.51,10.05L9.46,10.14L9.42,10.23L9.37,10.31L9.32,10.39L9.27,10.48L9.21,10.55L9.16,10.63L9.1,10.71L9.04,10.78L8.98,10.85L8.96,10.87L8.94,10.89L8.92,10.91L8.9,10.93L8.88,10.95L8.86,10.96L8.83,10.97L8.81,10.99L8.78,11L8.76,11.01L8.73,11.01L8.71,11.02L8.68,11.02L8.65,11.03L8.62,11.03L8.59,11.03L8.57,11.03L8.54,11.03L8.52,11.03L8.5,11.02L8.47,11.02L8.45,11.01L8.43,11L8.4,11L8.38,10.99L8.36,10.98L8.34,10.96L8.32,10.95L8.3,10.94L8.28,10.92L8.26,10.91L8.24,10.89L8.22,10.87L8.21,10.85L8.19,10.84L8.18,10.82L8.16,10.8L8.15,10.78L8.14,10.75L8.13,10.73L8.12,10.71L8.11,10.69L8.11,10.66L8.1,10.64L8.1,10.62L8.1,10.59L8.09,10.57Z"/><path id="v2" class="ink" d="M3.3,11L1.5,11L1.46,11L1.42,11L1.39,11L1.35,10.99L1.31,10.99L1.28,10.98L1.24,10.98L1.2,10.97L1.17,10.96L1.13,10.95L1.1,10.94L1.06,10.93L1.03,10.92L0.99,10.91L0.96,10.9L0.92,10.88L0.89,10.87L0.85,10.85L0.82,10.84L0.79,10.82L0.76,10.8L0.73,10.78L0.7,10.76L0.67,10.74L0.64,10.72L0.61,10.7L0.58,10.68L0.55,10.66L0.52,10.63L0.49,10.61L0.47,10.58L0.44,10.56L0.42,10.53L0.39,10.51L0.37,10.48L0.34,10.45L0.32,10.42L0.3,10.39L0.28,10.36L0.26,10.33L0.24,10.3L0.22,10.27L0.2,10.24L0.18,10.21L0.16,10.18L0.15,10.15L0.13,10.11L0.12,10.08L0.1,10.04L0.09,10.01L0.08,9.97L0.07,9.94L0.06,9.9L0.05,9.87L0.04,9.83L0.03,9.8L0.02,9.76L0.02,9.72L0.01,9.69L0.01,9.65L0.00,9.61L0.00,9.58L0,9.54L0,9.5L0,6.5L0,6.46L0.00,6.42L0.00,6.39L0.01,6.35L0.01,6.31L0.02,6.28L0.02,6.24L0.03,6.2L0.04,6.17L0.05,6.13L0.06,6.1L0.07,6.06L0.08,6.03L0.09,5.99L0.1,5.96L0.12,5.92L0.13,5.89L0.15,5.85L0.16,5.82L0.18,5.79L0.2,5.76L0.22,5.73L0.24,5.7L0.26,5.67L0.28,5.64L0.3,5.61L0.32,5.58L0.34,5.55L0.37,5.52L0.39,5.49L0.42,5.47L0.44,5.44L0.47,5.42L0.49,5.39L0.52,5.37L0.55,5.34L0.58,5.32L0.61,5.3L0.64,5.28L0.67,5.26L0.7,5.24L0.73,5.22L0.76,5.2L0.79,5.18L0.82,5.16L0.85,5.15L0.89,5.13L0.92,5.12L0.96,5.1L0.99,5.09L1.03,5.08L1.06,5.07L1.1,5.06L1.13,5.05L1.17,5.04L1.2,5.03L1.24,5.02L1.28,5.02L1.31,5.01L1.35,5.01L1.39,5L1.42,5L1.46,5L1.5,5L3.3,5L5.72,2.57L5.75,2.54L5.78,2.52L5.8,2.5L5.83,2.48L5.87,2.46L5.9,2.44L5.93,2.42L5.96,2.41L6,2.4L6.03,2.39L6.07,2.38L6.1,2.37L6.14,2.37L6.18,2.36L6.21,2.36L6.25,2.36L6.29,2.36L6.33,2.36L6.37,2.37L6.4,2.37L6.44,2.38L6.48,2.39L6.51,2.4L6.54,2.41L6.58,2.43L6.61,2.44L6.64,2.46L6.67,2.48L6.7,2.5L6.73,2.52L6.76,2.54L6.79,2.57L6.81,2.6L6.84,2.62L6.86,2.65L6.88,2.68L6.9,2.71L6.92,2.74L6.93,2.78L6.95,2.81L6.96,2.84L6.97,2.88L6.98,2.91L6.99,2.95L6.99,2.99L7,3.02L7,3.06L7,3.1L7,12.9L7,12.94L7,12.98L6.99,13.01L6.99,13.05L6.98,13.08L6.97,13.12L6.96,13.15L6.94,13.19L6.93,13.22L6.91,13.25L6.89,13.28L6.87,13.31L6.85,13.34L6.83,13.37L6.81,13.4L6.78,13.43L6.76,13.45L6.73,13.48L6.7,13.5L6.67,13.52L6.64,13.54L6.61,13.56L6.58,13.57L6.54,13.59L6.51,13.6L6.47,13.62L6.44,13.63L6.4,13.63L6.36,13.64L6.33,13.64L6.29,13.65L6.25,13.65L6.21,13.65L6.17,13.65L6.14,13.64L6.1,13.63L6.06,13.63L6.03,13.62L5.99,13.61L5.96,13.59L5.93,13.58L5.9,13.56L5.86,13.55L5.83,13.53L5.8,13.5L5.77,13.48L5.75,13.46L5.72,13.43ZM10.03,12.45L10.03,12.41L10.03,12.39L10.04,12.36L10.04,12.33L10.05,12.31L10.06,12.28L10.06,12.26L10.07,12.24L10.09,12.22L10.1,12.2L10.11,12.18L10.13,12.16L10.14,12.13L10.16,12.11L10.18,12.09L10.2,12.07L10.26,12.02L10.31,11.96L10.36,11.91L10.41,11.86L10.46,11.8L10.51,11.75L10.56,11.69L10.61,11.64L10.66,11.58L10.7,11.53L10.75,11.47L10.79,11.42L10.84,11.36L10.88,11.3L10.92,11.24L10.96,11.19L11.01,11.13L11.05,11.07L11.09,11.01L11.12,10.95L11.16,10.9L11.2,10.84L11.24,10.78L11.27,10.72L11.31,10.66L11.34,10.6L11.38,10.54L11.41,10.47L11.44,10.41L11.47,10.35L11.5,10.29L11.53,10.23L11.56,10.16L11.59,10.1L11.62,10.04L11.64,9.97L11.67,9.91L11.69,9.84L11.71,9.78L11.74,9.71L11.76,9.65L11.78,9.58L11.8,9.51L11.82,9.44L11.83,9.38L11.85,9.31L11.87,9.24L11.88,9.17L11.9,9.1L11.91,9.03L11.92,8.96L11.93,8.89L11.94,8.82L11.95,8.74L11.96,8.67L11.97,8.6L11.98,8.53L11.98,8.45L11.99,8.38L11.99,8.3L12,8.23L12,8.15L12,8.08L12,8L12,7.92L12,7.85L12,7.77L11.99,7.7L11.99,7.62L11.98,7.55L11.98,7.47L11.97,7.4L11.96,7.33L11.95,7.26L11.94,7.18L11.93,7.11L11.92,7.04L11.91,6.97L11.9,6.9L11.88,6.83L11.87,6.76L11.85,6.69L11.83,6.62L11.82,6.56L11.8,6.49L11.78,6.42L11.76,6.35L11.74,6.29L11.71,6.22L11.69,6.16L11.67,6.09L11.64,6.03L11.62,5.96L11.59,5.9L11.56,5.84L11.53,5.77L11.5,5.71L11.47,5.65L11.44,5.59L11.41,5.53L11.38,5.46L11.34,5.4L11.31,5.34L11.27,5.28L11.24,5.22L11.2,5.16L11.16,5.1L11.12,5.05L11.09,4.99L11.05,4.93L11.01,4.87L10.96,4.81L10.92,4.76L10.88,4.7L10.84,4.64L10.79,4.58L10.75,4.53L10.7,4.47L10.66,4.42L10.61,4.36L10.56,4.31L10.51,4.25L10.46,4.2L10.41,4.14L10.36,4.09L10.31,4.04L10.26,3.98L10.2,3.93L10.18,3.91L10.16,3.89L10.14,3.87L10.13,3.84L10.11,3.82L10.1,3.8L10.09,3.78L10.07,3.76L10.06,3.74L10.06,3.72L10.05,3.69L10.04,3.67L10.04,3.64L10.03,3.61L10.03,3.59L10.03,3.55L10.03,3.53L10.03,3.5L10.04,3.48L10.04,3.46L10.05,3.43L10.05,3.41L10.06,3.39L10.07,3.37L10.08,3.34L10.09,3.32L10.1,3.3L10.12,3.28L10.13,3.26L10.15,3.24L10.17,3.23L10.18,3.21L10.2,3.19L10.22,3.17L10.24,3.16L10.26,3.14L10.28,3.13L10.3,3.12L10.33,3.11L10.35,3.1L10.37,3.09L10.39,3.08L10.42,3.08L10.44,3.07L10.46,3.07L10.49,3.06L10.51,3.06L10.54,3.06L10.57,3.06L10.59,3.06L10.62,3.07L10.64,3.07L10.66,3.07L10.68,3.08L10.7,3.08L10.72,3.09L10.74,3.1L10.75,3.11L10.77,3.12L10.79,3.13L10.81,3.14L10.83,3.16L10.85,3.17L10.88,3.19L10.94,3.24L11,3.29L11.05,3.35L11.11,3.4L11.17,3.46L11.23,3.52L11.29,3.58L11.35,3.65L11.4,3.71L11.46,3.78L11.52,3.85L11.57,3.91L11.63,3.98L11.68,4.05L11.73,4.12L11.78,4.2L11.83,4.27L11.88,4.34L11.93,4.41L11.98,4.49L12.02,4.56L12.07,4.64L12.11,4.71L12.15,4.79L12.19,4.86L12.23,4.93L12.27,5.01L12.31,5.08L12.35,5.16L12.38,5.23L12.41,5.3L12.45,5.38L12.48,5.45L12.51,5.53L12.54,5.61L12.58,5.69L12.61,5.77L12.63,5.85L12.66,5.93L12.69,6.01L12.71,6.09L12.74,6.17L12.76,6.25L12.78,6.33L12.8,6.41L12.82,6.49L12.84,6.57L12.86,6.66L12.88,6.74L12.89,6.82L12.91,6.9L12.92,6.99L12.93,7.07L12.95,7.15L12.96,7.24L12.97,7.32L12.97,7.4L12.98,7.49L12.99,7.57L12.99,7.66L13,7.74L13,7.83L13,7.91L13,8L13,8.09L13,8.17L13,8.26L12.99,8.34L12.99,8.43L12.98,8.51L12.97,8.6L12.97,8.68L12.96,8.76L12.95,8.85L12.93,8.93L12.92,9.01L12.91,9.1L12.89,9.18L12.88,9.26L12.86,9.34L12.84,9.43L12.82,9.51L12.8,9.59L12.78,9.67L12.76,9.75L12.74,9.83L12.71,9.91L12.69,9.99L12.66,10.07L12.63,10.15L12.61,10.23L12.58,10.31L12.54,10.39L12.51,10.47L12.48,10.55L12.45,10.63L12.42,10.69L12.38,10.76L12.35,10.83L12.31,10.91L12.28,10.98L12.24,11.05L12.2,11.13L12.16,11.2L12.11,11.28L12.07,11.35L12.02,11.43L11.98,11.51L11.93,11.58L11.88,11.66L11.83,11.73L11.78,11.8L11.73,11.88L11.67,11.95L11.62,12.02L11.56,12.09L11.51,12.16L11.45,12.23L11.4,12.3L11.34,12.36L11.28,12.43L11.22,12.49L11.17,12.55L11.11,12.61L11.05,12.66L10.99,12.71L10.93,12.76L10.88,12.81L10.86,12.83L10.84,12.84L10.82,12.85L10.8,12.87L10.78,12.88L10.76,12.89L10.74,12.9L10.72,12.91L10.7,12.91L10.68,12.92L10.66,12.93L10.63,12.93L10.61,12.93L10.59,12.94L10.56,12.94L10.54,12.94L10.51,12.94L10.49,12.94L10.46,12.93L10.44,12.93L10.42,12.92L10.39,12.92L10.37,12.91L10.35,12.9L10.33,12.89L10.3,12.88L10.28,12.87L10.26,12.86L10.24,12.84L10.22,12.83L10.2,12.81L10.18,12.79L10.17,12.77L10.15,12.76L10.13,12.74L10.12,12.72L10.1,12.7L10.09,12.68L10.08,12.66L10.07,12.63L10.06,12.61L10.05,12.59L10.05,12.57L10.04,12.54L10.04,12.52L10.03,12.5L10.03,12.47ZM6,12.29L6,3.7L3.85,5.85L3.83,5.87L3.81,5.89L3.79,5.9L3.77,5.92L3.75,5.93L3.73,5.94L3.71,5.95L3.69,5.96L3.67,5.97L3.64,5.98L3.62,5.99L3.6,5.99L3.57,5.99L3.55,6L3.53,6L3.5,6L1.5,6L1.47,6L1.45,6L1.43,6.01L1.4,6.01L1.38,6.01L1.36,6.02L1.33,6.03L1.31,6.04L1.29,6.05L1.27,6.06L1.25,6.07L1.23,6.08L1.21,6.1L1.19,6.11L1.17,6.13L1.15,6.15L1.13,6.17L1.11,6.19L1.1,6.21L1.08,6.23L1.07,6.25L1.06,6.27L1.05,6.29L1.04,6.31L1.03,6.33L1.02,6.36L1.01,6.38L1.01,6.4L1.01,6.43L1,6.45L1,6.47L1,6.5L1,9.5L1,9.53L1,9.55L1.01,9.57L1.01,9.6L1.01,9.62L1.02,9.64L1.03,9.67L1.04,9.69L1.05,9.71L1.06,9.73L1.07,9.75L1.08,9.77L1.1,9.79L1.11,9.81L1.13,9.83L1.15,9.85L1.17,9.87L1.19,9.89L1.21,9.9L1.23,9.92L1.25,9.93L1.27,9.94L1.29,9.95L1.31,9.96L1.33,9.97L1.36,9.98L1.38,9.99L1.4,9.99L1.43,9.99L1.45,10L1.47,10L1.5,10L3.5,10L3.53,10L3.55,10L3.57,10.01L3.6,10.01L3.62,10.01L3.64,10.02L3.67,10.03L3.69,10.04L3.71,10.05L3.73,10.06L3.75,10.07L3.77,10.08L3.79,10.1L3.81,10.11L3.83,10.13L3.85,10.15ZM8.09,10.54L8.09,10.51L8.1,10.49L8.1,10.47L8.1,10.45L8.1,10.42L8.11,10.4L8.11,10.39L8.12,10.37L8.13,10.35L8.14,10.33L8.15,10.31L8.16,10.29L8.17,10.28L8.18,10.26L8.2,10.24L8.21,10.22L8.26,10.15L8.3,10.09L8.35,10.02L8.39,9.96L8.43,9.9L8.47,9.83L8.51,9.77L8.54,9.7L8.58,9.63L8.61,9.57L8.65,9.5L8.68,9.44L8.71,9.37L8.74,9.31L8.77,9.24L8.79,9.18L8.82,9.11L8.84,9.04L8.86,8.97L8.88,8.9L8.9,8.83L8.92,8.76L8.93,8.69L8.95,8.62L8.96,8.54L8.97,8.47L8.98,8.39L8.99,8.32L8.99,8.24L9,8.16L9,8.08L9,8L9,7.92L9,7.84L8.99,7.76L8.99,7.68L8.98,7.61L8.97,7.53L8.96,7.46L8.95,7.38L8.93,7.31L8.92,7.24L8.9,7.17L8.88,7.1L8.86,7.03L8.84,6.96L8.82,6.89L8.79,6.82L8.77,6.76L8.74,6.69L8.71,6.63L8.68,6.56L8.65,6.5L8.61,6.43L8.58,6.37L8.54,6.3L8.51,6.23L8.47,6.17L8.43,6.1L8.39,6.04L8.35,5.98L8.3,5.91L8.26,5.85L8.21,5.78L8.2,5.76L8.18,5.74L8.17,5.72L8.16,5.71L8.15,5.69L8.14,5.67L8.13,5.65L8.12,5.63L8.11,5.61L8.11,5.6L8.1,5.58L8.1,5.55L8.1,5.53L8.1,5.51L8.09,5.49L8.09,5.46L8.09,5.44L8.1,5.41L8.1,5.39L8.1,5.36L8.11,5.34L8.11,5.32L8.12,5.29L8.13,5.27L8.14,5.25L8.15,5.23L8.16,5.21L8.18,5.19L8.19,5.17L8.21,5.15L8.22,5.13L8.24,5.11L8.26,5.09L8.28,5.07L8.3,5.06L8.32,5.04L8.34,5.03L8.36,5.02L8.38,5.01L8.4,5L8.43,4.99L8.45,4.98L8.47,4.98L8.5,4.97L8.52,4.97L8.54,4.96L8.57,4.96L8.59,4.96L8.62,4.96L8.65,4.96L8.68,4.97L8.71,4.97L8.73,4.98L8.76,4.99L8.78,5L8.81,5.01L8.83,5.02L8.86,5.03L8.88,5.05L8.9,5.07L8.92,5.08L8.94,5.1L8.96,5.13L8.98,5.15L9.05,5.22L9.11,5.3L9.16,5.37L9.22,5.45L9.27,5.53L9.32,5.61L9.37,5.69L9.42,5.78L9.47,5.86L9.51,5.95L9.55,6.04L9.59,6.12L9.63,6.21L9.67,6.3L9.71,6.39L9.74,6.48L9.77,6.58L9.8,6.67L9.83,6.76L9.85,6.86L9.88,6.95L9.9,7.05L9.92,7.14L9.93,7.24L9.95,7.33L9.96,7.43L9.97,7.53L9.98,7.62L9.99,7.72L10,7.81L10,7.91L10,8L10,8.09L10,8.18L9.99,8.28L9.98,8.37L9.97,8.47L9.96,8.56L9.95,8.66L9.93,8.75L9.92,8.85L9.9,8.95L9.88,9.04L9.85,9.14L9.83,9.23L9.8,9.33L9.77,9.42L9.74,9.51L9.71,9.6L9.67,9.7L9.63,9.79L9.59,9.88L9.55,9.96L9.51,10.05L9.46,10.14L9.42,10.23L9.37,10.31L9.32,10.39L9.27,10.48L9.21,10.55L9.16,10.63L9.1,10.71L9.04,10.78L8.98,10.85L8.96,10.87L8.94,10.89L8.92,10.91L8.9,10.93L8.88,10.95L8.86,10.96L8.83,10.97L8.81,10.99L8.78,11L8.76,11.01L8.73,11.01L8.71,11.02L8.68,11.02L8.65,11.03L8.62,11.03L8.59,11.03L8.57,11.03L8.54,11.03L8.52,11.03L8.5,11.02L8.47,11.02L8.45,11.01L8.43,11L8.4,11L8.38,10.99L8.36,10.98L8.34,10.96L8.32,10.95L8.3,10.94L8.28,10.92L8.26,10.91L8.24,10.89L8.22,10.87L8.21,10.85L8.19,10.84L8.18,10.82L8.16,10.8L8.15,10.78L8.14,10.75L8.13,10.73L8.12,10.71L8.11,10.69L8.11,10.66L8.1,10.64L8.1,10.62L8.1,10.59L8.09,10.57Z"/><path id="v3" class="ink" d="M12,14.24L12,14.21L12,14.18L12.01,14.15L12.01,14.12L12.02,14.1L12.03,14.07L12.04,14.05L12.05,14.03L12.06,14.01L12.08,13.99L12.09,13.96L12.11,13.94L12.13,13.92L12.15,13.9L12.17,13.87L12.19,13.85L12.24,13.8L12.3,13.75L12.36,13.69L12.42,13.64L12.48,13.59L12.54,13.54L12.6,13.49L12.66,13.44L12.73,13.37L12.8,13.31L12.87,13.24L12.94,13.17L13,13.1L13.07,13.03L13.13,12.96L13.2,12.89L13.26,12.82L13.32,12.75L13.38,12.67L13.44,12.6L13.5,12.52L13.55,12.45L13.61,12.37L13.66,12.29L13.72,12.21L13.77,12.13L13.82,12.05L13.87,11.97L13.92,11.89L13.97,11.81L14.02,11.73L14.07,11.65L14.11,11.56L14.16,11.48L14.2,11.39L14.24,11.31L14.28,11.22L14.32,11.14L14.36,11.05L14.4,10.96L14.43,10.87L14.47,10.78L14.5,10.7L14.54,10.61L14.57,10.52L14.6,10.43L14.63,10.34L14.66,10.25L14.69,10.16L14.71,10.06L14.74,9.97L14.76,9.88L14.79,9.79L14.81,9.69L14.83,9.6L14.85,9.51L14.87,9.41L14.88,9.32L14.9,9.23L14.91,9.13L14.93,9.04L14.94,8.94L14.95,8.85L14.96,8.76L14.97,8.66L14.98,8.57L14.99,8.47L14.99,8.38L14.99,8.28L15,8.19L15,8.09L15,8L15,7.91L15,7.81L14.99,7.72L14.99,7.62L14.99,7.53L14.98,7.44L14.97,7.34L14.96,7.25L14.95,7.16L14.94,7.06L14.93,6.97L14.91,6.87L14.9,6.78L14.88,6.68L14.87,6.59L14.85,6.5L14.83,6.4L14.81,6.31L14.79,6.22L14.76,6.12L14.74,6.03L14.71,5.94L14.69,5.85L14.66,5.75L14.63,5.66L14.6,5.57L14.57,5.48L14.54,5.39L14.5,5.3L14.47,5.21L14.43,5.12L14.39,5.04L14.36,4.95L14.32,4.86L14.28,4.77L14.24,4.69L14.19,4.6L14.15,4.52L14.11,4.43L14.06,4.35L14.01,4.26L13.97,4.18L13.92,4.1L13.87,4.02L13.82,3.94L13.77,3.85L13.71,3.77L13.66,3.7L13.61,3.62L13.55,3.54L13.49,3.46L13.44,3.39L13.38,3.31L13.32,3.24L13.26,3.17L13.19,3.09L13.13,3.02L13.07,2.95L13,2.88L12.94,2.82L12.87,2.75L12.8,2.68L12.73,2.62L12.66,2.55L12.6,2.5L12.54,2.45L12.48,2.4L12.42,2.35L12.36,2.3L12.3,2.25L12.24,2.19L12.19,2.14L12.16,2.12L12.14,2.09L12.12,2.07L12.11,2.05L12.09,2.03L12.07,2.01L12.06,1.99L12.05,1.97L12.04,1.95L12.03,1.93L12.02,1.9L12.01,1.88L12.01,1.85L12,1.82L12,1.78L12,1.75L12,1.72L12,1.7L12.01,1.67L12.01,1.65L12.01,1.63L12.02,1.6L12.03,1.58L12.04,1.56L12.05,1.53L12.06,1.51L12.07,1.49L12.08,1.47L12.1,1.45L12.11,1.43L12.13,1.42L12.14,1.4L12.16,1.38L12.18,1.37L12.2,1.35L12.22,1.34L12.24,1.32L12.26,1.31L12.28,1.3L12.31,1.29L12.33,1.28L12.35,1.28L12.37,1.27L12.4,1.27L12.42,1.26L12.45,1.26L12.47,1.26L12.5,1.26L12.52,1.26L12.55,1.26L12.57,1.26L12.59,1.26L12.61,1.27L12.63,1.27L12.65,1.28L12.66,1.29L12.68,1.29L12.7,1.3L12.72,1.31L12.74,1.32L12.76,1.33L12.77,1.34L12.79,1.35L12.81,1.37L12.86,1.4L12.9,1.43L12.94,1.46L12.99,1.49L13.03,1.52L13.08,1.55L13.12,1.59L13.16,1.63L13.21,1.66L13.25,1.7L13.29,1.74L13.34,1.78L13.38,1.82L13.42,1.86L13.46,1.9L13.51,1.95L13.59,2.03L13.68,2.12L13.76,2.22L13.84,2.31L13.92,2.4L14,2.5L14.08,2.6L14.16,2.7L14.24,2.8L14.31,2.9L14.38,3L14.46,3.11L14.53,3.21L14.59,3.31L14.66,3.42L14.73,3.52L14.76,3.58L14.79,3.63L14.82,3.68L14.85,3.73L14.88,3.78L14.91,3.83L14.94,3.88L14.96,3.93L14.99,3.98L15.02,4.03L15.04,4.08L15.07,4.13L15.09,4.18L15.12,4.23L15.14,4.27L15.16,4.32L15.22,4.43L15.26,4.54L15.31,4.65L15.36,4.76L15.4,4.87L15.45,4.98L15.49,5.09L15.53,5.2L15.57,5.31L15.6,5.43L15.64,5.54L15.67,5.65L15.7,5.77L15.73,5.88L15.76,6L15.79,6.11L15.81,6.23L15.84,6.35L15.86,6.46L15.88,6.58L15.9,6.7L15.92,6.81L15.93,6.93L15.95,7.05L15.96,7.17L15.97,7.28L15.98,7.4L15.99,7.52L15.99,7.64L16,7.76L16,7.88L16,8L16,8.12L16,8.24L15.99,8.36L15.99,8.48L15.98,8.59L15.97,8.71L15.96,8.83L15.95,8.95L15.93,9.07L15.92,9.18L15.9,9.3L15.88,9.42L15.86,9.54L15.84,9.65L15.81,9.77L15.79,9.89L15.76,10L15.73,10.12L15.7,10.23L15.67,10.35L15.64,10.46L15.6,10.58L15.57,10.69L15.53,10.8L15.49,10.91L15.45,11.02L15.4,11.14L15.36,11.25L15.31,11.35L15.26,11.46L15.22,11.57L15.16,11.68L15.14,11.73L15.12,11.77L15.09,11.82L15.07,11.87L15.04,11.91L15.02,11.96L14.99,12.01L14.96,12.06L14.94,12.11L14.91,12.16L14.88,12.21L14.85,12.26L14.82,12.32L14.79,12.37L14.76,12.42L14.73,12.47L14.66,12.58L14.59,12.68L14.53,12.79L14.46,12.89L14.38,13L14.31,13.1L14.23,13.2L14.16,13.3L14.08,13.4L14,13.5L13.92,13.6L13.84,13.69L13.75,13.78L13.67,13.88L13.59,13.97L13.5,14.05L13.46,14.1L13.41,14.14L13.37,14.18L13.33,14.22L13.29,14.26L13.24,14.3L13.2,14.34L13.16,14.38L13.11,14.41L13.07,14.45L13.03,14.48L12.98,14.51L12.94,14.54L12.9,14.57L12.86,14.6L12.81,14.63L12.79,14.65L12.77,14.66L12.75,14.67L12.73,14.68L12.71,14.69L12.69,14.7L12.68,14.71L12.66,14.71L12.64,14.72L12.63,14.73L12.61,14.73L12.59,14.74L12.57,14.74L12.55,14.74L12.52,14.74L12.5,14.74L12.47,14.74L12.45,14.74L12.43,14.74L12.4,14.73L12.38,14.73L12.36,14.72L12.33,14.71L12.31,14.71L12.29,14.7L12.27,14.68L12.25,14.67L12.23,14.66L12.21,14.64L12.19,14.63L12.17,14.61L12.15,14.59L12.13,14.57L12.11,14.56L12.1,14.54L12.08,14.52L12.07,14.5L12.06,14.47L12.05,14.45L12.04,14.43L12.03,14.41L12.02,14.39L12.01,14.36L12.01,14.34L12.01,14.32L12,14.29L12,14.27ZM3.3,11L1.5,11L1.46,11L1.42,11L1.39,11L1.35,10.99L1.31,10.99L1.28,10.98L1.24,10.98L1.2,10.97L1.17,10.96L1.13,10.95L1.1,10.94L1.06,10.93L1.03,10.92L0.99,10.91L0.96,10.9L0.92,10.88L0.89,10.87L0.85,10.85L0.82,10.84L0.79,10.82L0.76,10.8L0.73,10.78L0.7,10.76L0.67,10.74L0.64,10.72L0.61,10.7L0.58,10.68L0.55,10.66L0.52,10.63L0.49,10.61L0.47,10.58L0.44,10.56L0.42,10.53L0.39,10.51L0.37,10.48L0.34,10.45L0.32,10.42L0.3,10.39L0.28,10.36L0.26,10.33L0.24,10.3L0.22,10.27L0.2,10.24L0.18,10.21L0.16,10.18L0.15,10.15L0.13,10.11L0.12,10.08L0.1,10.04L0.09,10.01L0.08,9.97L0.07,9.94L0.06,9.9L0.05,9.87L0.04,9.83L0.03,9.8L0.02,9.76L0.02,9.72L0.01,9.69L0.01,9.65L0.00,9.61L0.00,9.58L0,9.54L0,9.5L0,6.5L0,6.46L0.00,6.42L0.00,6.39L0.01,6.35L0.01,6.31L0.02,6.28L0.02,6.24L0.03,6.2L0.04,6.17L0.05,6.13L0.06,6.1L0.07,6.06L0.08,6.03L0.09,5.99L0.1,5.96L0.12,5.92L0.13,5.89L0.15,5.85L0.16,5.82L0.18,5.79L0.2,5.76L0.22,5.73L0.24,5.7L0.26,5.67L0.28,5.64L0.3,5.61L0.32,5.58L0.34,5.55L0.37,5.52L0.39,5.49L0.42,5.47L0.44,5.44L0.47,5.42L0.49,5.39L0.52,5.37L0.55,5.34L0.58,5.32L0.61,5.3L0.64,5.28L0.67,5.26L0.7,5.24L0.73,5.22L0.76,5.2L0.79,5.18L0.82,5.16L0.85,5.15L0.89,5.13L0.92,5.12L0.96,5.1L0.99,5.09L1.03,5.08L1.06,5.07L1.1,5.06L1.13,5.05L1.17,5.04L1.2,5.03L1.24,5.02L1.28,5.02L1.31,5.01L1.35,5.01L1.39,5L1.42,5L1.46,5L1.5,5L3.3,5L5.72,2.57L5.75,2.54L5.78,2.52L5.8,2.5L5.83,2.48L5.87,2.46L5.9,2.44L5.93,2.42L5.96,2.41L6,2.4L6.03,2.39L6.07,2.38L6.1,2.37L6.14,2.37L6.18,2.36L6.21,2.36L6.25,2.36L6.29,2.36L6.33,2.36L6.37,2.37L6.4,2.37L6.44,2.38L6.48,2.39L6.51,2.4L6.54,2.41L6.58,2.43L6.61,2.44L6.64,2.46L6.67,2.48L6.7,2.5L6.73,2.52L6.76,2.54L6.79,2.57L6.81,2.6L6.84,2.62L6.86,2.65L6.88,2.68L6.9,2.71L6.92,2.74L6.93,2.78L6.95,2.81L6.96,2.84L6.97,2.88L6.98,2.91L6.99,2.95L6.99,2.99L7,3.02L7,3.06L7,3.1L7,12.9L7,12.94L7,12.98L6.99,13.01L6.99,13.05L6.98,13.08L6.97,13.12L6.96,13.15L6.94,13.19L6.93,13.22L6.91,13.25L6.89,13.28L6.87,13.31L6.85,13.34L6.83,13.37L6.8,13.4L6.78,13.43L6.75,13.45L6.72,13.48L6.69,13.5L6.66,13.52L6.63,13.54L6.6,13.56L6.57,13.57L6.54,13.59L6.5,13.6L6.47,13.62L6.43,13.63L6.4,13.63L6.36,13.64L6.32,13.64L6.29,13.65L6.25,13.65L6.21,13.65L6.17,13.65L6.14,13.64L6.1,13.63L6.06,13.63L6.03,13.62L5.99,13.61L5.96,13.59L5.93,13.58L5.9,13.56L5.86,13.55L5.83,13.53L5.8,13.5L5.77,13.48L5.75,13.46L5.72,13.43ZM10.03,12.45L10.03,12.41L10.03,12.38L10.04,12.35L10.04,12.33L10.05,12.3L10.06,12.28L10.06,12.26L10.07,12.24L10.09,12.22L10.1,12.21L10.11,12.19L10.13,12.16L10.14,12.14L10.16,12.12L10.18,12.1L10.2,12.07L10.26,12.01L10.31,11.95L10.36,11.89L10.41,11.83L10.46,11.77L10.51,11.71L10.56,11.65L10.61,11.6L10.66,11.54L10.7,11.48L10.75,11.42L10.79,11.37L10.84,11.31L10.88,11.25L10.93,11.2L10.97,11.14L11.01,11.08L11.05,11.03L11.09,10.97L11.13,10.92L11.17,10.86L11.21,10.8L11.24,10.75L11.28,10.69L11.31,10.63L11.35,10.57L11.38,10.52L11.41,10.46L11.44,10.4L11.47,10.34L11.5,10.28L11.53,10.22L11.56,10.16L11.59,10.1L11.61,10.04L11.64,9.98L11.66,9.92L11.69,9.86L11.71,9.8L11.73,9.73L11.75,9.67L11.77,9.61L11.79,9.54L11.81,9.48L11.83,9.41L11.85,9.34L11.86,9.28L11.88,9.21L11.89,9.14L11.91,9.07L11.92,9L11.93,8.93L11.94,8.86L11.95,8.79L11.96,8.71L11.97,8.64L11.98,8.56L11.98,8.49L11.99,8.41L11.99,8.33L12,8.25L12,8.17L12,8.08L12,8L12,7.92L12,7.83L12,7.75L11.99,7.67L11.99,7.59L11.98,7.51L11.98,7.44L11.97,7.36L11.96,7.29L11.95,7.21L11.94,7.14L11.93,7.07L11.92,7L11.91,6.93L11.89,6.86L11.88,6.79L11.86,6.72L11.85,6.66L11.83,6.59L11.81,6.52L11.79,6.46L11.77,6.39L11.75,6.33L11.73,6.27L11.71,6.2L11.69,6.14L11.66,6.08L11.64,6.02L11.61,5.96L11.59,5.9L11.56,5.84L11.53,5.78L11.5,5.72L11.47,5.66L11.44,5.6L11.41,5.54L11.38,5.48L11.35,5.43L11.31,5.37L11.28,5.31L11.24,5.25L11.21,5.2L11.17,5.14L11.13,5.08L11.09,5.03L11.05,4.97L11.01,4.92L10.97,4.86L10.93,4.8L10.88,4.75L10.84,4.69L10.79,4.63L10.75,4.58L10.7,4.52L10.66,4.46L10.61,4.4L10.56,4.35L10.51,4.29L10.46,4.23L10.41,4.17L10.36,4.11L10.31,4.05L10.26,3.99L10.2,3.93L10.18,3.9L10.16,3.88L10.14,3.86L10.13,3.84L10.11,3.81L10.1,3.79L10.09,3.78L10.07,3.76L10.06,3.74L10.06,3.72L10.05,3.7L10.04,3.67L10.04,3.65L10.03,3.62L10.03,3.59L10.03,3.55L10.03,3.53L10.03,3.5L10.04,3.48L10.04,3.46L10.05,3.43L10.05,3.41L10.06,3.39L10.07,3.37L10.08,3.34L10.09,3.32L10.1,3.3L10.12,3.28L10.13,3.26L10.15,3.24L10.17,3.23L10.18,3.21L10.2,3.19L10.22,3.17L10.24,3.16L10.26,3.14L10.28,3.13L10.3,3.12L10.33,3.11L10.35,3.1L10.37,3.09L10.39,3.08L10.42,3.08L10.44,3.07L10.46,3.07L10.49,3.06L10.51,3.06L10.54,3.06L10.57,3.06L10.59,3.06L10.62,3.07L10.64,3.07L10.66,3.07L10.68,3.08L10.7,3.08L10.72,3.09L10.73,3.1L10.75,3.11L10.77,3.12L10.79,3.13L10.81,3.14L10.83,3.16L10.85,3.17L10.88,3.19L10.93,3.23L10.99,3.28L11.05,3.33L11.11,3.39L11.17,3.44L11.22,3.5L11.28,3.56L11.34,3.63L11.4,3.69L11.45,3.76L11.51,3.83L11.56,3.9L11.62,3.97L11.67,4.04L11.73,4.11L11.78,4.19L11.83,4.26L11.88,4.34L11.93,4.41L11.98,4.49L12.02,4.56L12.07,4.64L12.11,4.72L12.16,4.79L12.2,4.87L12.24,4.95L12.28,5.02L12.31,5.09L12.35,5.16L12.38,5.24L12.42,5.31L12.45,5.38L12.48,5.45L12.51,5.53L12.54,5.61L12.58,5.69L12.61,5.77L12.63,5.85L12.66,5.93L12.69,6.01L12.71,6.09L12.74,6.17L12.76,6.25L12.78,6.33L12.8,6.41L12.82,6.49L12.84,6.57L12.86,6.66L12.88,6.74L12.89,6.82L12.91,6.9L12.92,6.99L12.93,7.07L12.95,7.15L12.96,7.24L12.97,7.32L12.97,7.4L12.98,7.49L12.99,7.57L12.99,7.66L13,7.74L13,7.83L13,7.91L13,8L13,8.09L13,8.17L13,8.26L12.99,8.34L12.99,8.43L12.98,8.51L12.97,8.6L12.97,8.68L12.96,8.76L12.95,8.85L12.93,8.93L12.92,9.01L12.91,9.1L12.89,9.18L12.88,9.26L12.86,9.34L12.84,9.43L12.82,9.51L12.8,9.59L12.78,9.67L12.76,9.75L12.74,9.83L12.71,9.91L12.69,9.99L12.66,10.07L12.63,10.15L12.61,10.23L12.58,10.31L12.54,10.39L12.51,10.47L12.48,10.55L12.45,10.63L12.43,10.66L12.42,10.69L12.4,10.72L12.39,10.75L12.37,10.79L12.35,10.82L12.34,10.86L12.32,10.89L12.3,10.93L12.28,10.96L12.26,11L12.24,11.04L12.22,11.08L12.2,11.11L12.18,11.15L12.16,11.19L12.12,11.27L12.07,11.35L12.02,11.43L11.98,11.51L11.93,11.58L11.88,11.66L11.83,11.74L11.77,11.82L11.72,11.89L11.67,11.97L11.61,12.04L11.56,12.11L11.5,12.19L11.45,12.26L11.39,12.32L11.33,12.39L11.27,12.46L11.22,12.52L11.16,12.57L11.1,12.63L11.05,12.68L10.99,12.73L10.93,12.77L10.88,12.81L10.85,12.83L10.83,12.84L10.81,12.85L10.79,12.86L10.77,12.87L10.75,12.88L10.73,12.89L10.71,12.9L10.7,12.91L10.68,12.92L10.66,12.92L10.63,12.93L10.61,12.93L10.59,12.94L10.56,12.94L10.54,12.94L10.51,12.94L10.49,12.94L10.46,12.93L10.44,12.93L10.42,12.92L10.39,12.92L10.37,12.91L10.35,12.9L10.33,12.89L10.3,12.88L10.28,12.87L10.26,12.86L10.24,12.84L10.22,12.83L10.2,12.81L10.18,12.79L10.17,12.77L10.15,12.76L10.13,12.74L10.12,12.72L10.1,12.7L10.09,12.68L10.08,12.66L10.07,12.63L10.06,12.61L10.05,12.59L10.05,12.57L10.04,12.54L10.04,12.52L10.03,12.5L10.03,12.47ZM6,12.29L6,3.7L3.85,5.85L3.83,5.87L3.81,5.89L3.79,5.9L3.77,5.92L3.75,5.93L3.73,5.94L3.71,5.95L3.69,5.96L3.67,5.97L3.64,5.98L3.62,5.99L3.6,5.99L3.57,5.99L3.55,6L3.53,6L3.5,6L1.5,6L1.47,6L1.45,6L1.43,6.01L1.4,6.01L1.38,6.01L1.36,6.02L1.33,6.03L1.31,6.04L1.29,6.05L1.27,6.06L1.25,6.07L1.23,6.08L1.21,6.1L1.19,6.11L1.17,6.13L1.15,6.15L1.13,6.17L1.11,6.19L1.1,6.21L1.08,6.23L1.07,6.25L1.06,6.27L1.05,6.29L1.04,6.31L1.03,6.33L1.02,6.36L1.01,6.38L1.01,6.4L1.01,6.43L1,6.45L1,6.47L1,6.5L1,9.5L1,9.53L1,9.55L1.01,9.57L1.01,9.6L1.01,9.62L1.02,9.64L1.03,9.67L1.04,9.69L1.05,9.71L1.06,9.73L1.07,9.75L1.08,9.77L1.1,9.79L1.11,9.81L1.13,9.83L1.15,9.85L1.17,9.87L1.19,9.89L1.21,9.9L1.23,9.92L1.25,9.93L1.27,9.94L1.29,9.95L1.31,9.96L1.33,9.97L1.36,9.98L1.38,9.99L1.4,9.99L1.43,9.99L1.45,10L1.47,10L1.5,10L3.5,10L3.53,10L3.55,10L3.57,10.01L3.6,10.01L3.62,10.01L3.64,10.02L3.67,10.03L3.69,10.04L3.71,10.05L3.73,10.06L3.75,10.07L3.77,10.08L3.79,10.1L3.81,10.11L3.83,10.13L3.85,10.15ZM8.09,10.54L8.09,10.51L8.1,10.49L8.1,10.46L8.1,10.44L8.1,10.42L8.11,10.4L8.11,10.38L8.12,10.37L8.13,10.35L8.14,10.33L8.15,10.32L8.16,10.3L8.17,10.28L8.18,10.26L8.2,10.24L8.21,10.22L8.26,10.15L8.3,10.08L8.34,10.02L8.38,9.95L8.42,9.88L8.46,9.82L8.5,9.76L8.54,9.69L8.58,9.63L8.61,9.56L8.64,9.5L8.68,9.44L8.71,9.37L8.74,9.31L8.76,9.24L8.79,9.18L8.81,9.11L8.84,9.04L8.86,8.98L8.88,8.91L8.9,8.84L8.92,8.77L8.93,8.7L8.95,8.63L8.96,8.56L8.97,8.48L8.98,8.41L8.99,8.33L8.99,8.25L9,8.17L9,8.09L9,8L9,7.92L9,7.83L8.99,7.75L8.99,7.68L8.98,7.6L8.97,7.52L8.96,7.45L8.95,7.38L8.93,7.3L8.92,7.23L8.9,7.16L8.88,7.09L8.86,7.02L8.84,6.96L8.81,6.89L8.79,6.82L8.76,6.76L8.74,6.69L8.71,6.63L8.68,6.56L8.64,6.5L8.61,6.44L8.58,6.37L8.54,6.31L8.5,6.24L8.46,6.18L8.42,6.12L8.38,6.05L8.34,5.98L8.3,5.92L8.26,5.85L8.21,5.78L8.2,5.76L8.18,5.74L8.17,5.72L8.16,5.7L8.15,5.68L8.14,5.67L8.13,5.65L8.12,5.63L8.11,5.62L8.11,5.6L8.1,5.58L8.1,5.56L8.1,5.54L8.1,5.51L8.09,5.49L8.09,5.46L8.09,5.44L8.1,5.41L8.1,5.39L8.1,5.36L8.11,5.34L8.11,5.32L8.12,5.29L8.13,5.27L8.14,5.25L8.15,5.23L8.16,5.21L8.18,5.19L8.19,5.17L8.21,5.15L8.22,5.13L8.24,5.11L8.26,5.09L8.28,5.07L8.3,5.06L8.32,5.04L8.34,5.03L8.36,5.02L8.38,5.01L8.4,5L8.43,4.99L8.45,4.98L8.47,4.98L8.5,4.97L8.52,4.97L8.54,4.96L8.57,4.96L8.59,4.96L8.63,4.96L8.66,4.96L8.69,4.97L8.71,4.97L8.74,4.98L8.77,4.99L8.79,5L8.81,5.01L8.83,5.02L8.86,5.03L8.88,5.05L8.9,5.07L8.92,5.08L8.94,5.1L8.96,5.13L8.98,5.15L9.02,5.18L9.05,5.22L9.08,5.25L9.11,5.29L9.13,5.33L9.16,5.36L9.19,5.4L9.22,5.44L9.25,5.48L9.27,5.52L9.3,5.56L9.32,5.6L9.35,5.64L9.37,5.68L9.4,5.72L9.42,5.76L9.47,5.85L9.51,5.93L9.55,6.02L9.59,6.11L9.63,6.2L9.67,6.29L9.71,6.39L9.74,6.48L9.77,6.58L9.8,6.67L9.83,6.77L9.85,6.86L9.88,6.96L9.9,7.06L9.92,7.15L9.93,7.25L9.95,7.35L9.96,7.44L9.97,7.54L9.98,7.63L9.99,7.73L10,7.82L10,7.91L10,8L10,8.09L10,8.18L9.99,8.26L9.98,8.36L9.97,8.45L9.96,8.54L9.95,8.64L9.93,8.74L9.92,8.84L9.9,8.94L9.88,9.03L9.85,9.13L9.83,9.23L9.8,9.33L9.77,9.42L9.74,9.52L9.71,9.62L9.67,9.71L9.63,9.8L9.59,9.9L9.55,9.99L9.51,10.08L9.46,10.17L9.42,10.25L9.39,10.3L9.37,10.34L9.34,10.38L9.32,10.42L9.29,10.46L9.27,10.5L9.24,10.54L9.21,10.58L9.19,10.61L9.16,10.65L9.13,10.69L9.1,10.72L9.07,10.75L9.04,10.79L9.01,10.82L8.98,10.85L8.96,10.87L8.94,10.89L8.92,10.91L8.9,10.93L8.88,10.95L8.85,10.96L8.83,10.97L8.8,10.99L8.78,11L8.75,11.01L8.73,11.01L8.7,11.02L8.68,11.02L8.65,11.03L8.62,11.03L8.59,11.03L8.57,11.03L8.54,11.03L8.52,11.03L8.5,11.02L8.47,11.02L8.45,11.01L8.43,11L8.4,11L8.38,10.99L8.36,10.97L8.34,10.96L8.32,10.95L8.3,10.94L8.28,10.92L8.26,10.9L8.24,10.89L8.22,10.87L8.21,10.85L8.19,10.83L8.18,10.81L8.16,10.79L8.15,10.77L8.14,10.75L8.13,10.73L8.12,10.71L8.11,10.68L8.11,10.66L8.1,10.64L8.1,10.61L8.1,10.59L8.09,10.56Z"/></defs><use xlink:href="#v0" href="#v0" y="0"/><use xlink:href="#v1" href="#v1" y="16"/><use xlink:href="#v1" href="#v1" y="32"/><use xlink:href="#v1" href="#v1" y="48"/><use xlink:href="#v1" href="#v1" y="64"/><use xlink:href="#v1" href="#v1" y="80"/><use xlink:href="#v1" href="#v1" y="96"/><use xlink:href="#v1" href="#v1" y="112"/><use xlink:href="#v1" href="#v1" y="128"/><use xlink:href="#v1" href="#v1" y="144"/><use xlink:href="#v1" href="#v1" y="160"/><use xlink:href="#v1" href="#v1" y="176"/><use xlink:href="#v1" href="#v1" y="192"/><use xlink:href="#v1" href="#v1" y="208"/><use xlink:href="#v1" href="#v1" y="224"/><use xlink:href="#v1" href="#v1" y="240"/><use xlink:href="#v1" href="#v1" y="256"/><use xlink:href="#v1" href="#v1" y="272"/><use xlink:href="#v1" href="#v1" y="288"/><use xlink:href="#v1" href="#v1" y="304"/><use xlink:href="#v1" href="#v1" y="320"/><use xlink:href="#v1" href="#v1" y="336"/><use xlink:href="#v1" href="#v1" y="352"/><use xlink:href="#v1" href="#v1" y="368"/><use xlink:href="#v1" href="#v1" y="384"/><use xlink:href="#v1" href="#v1" y="400"/><use xlink:href="#v1" href="#v1" y="416"/><use xlink:href="#v1" href="#v1" y="432"/><use xlink:href="#v1" href="#v1" y="448"/><use xlink:href="#v1" href="#v1" y="464"/><use xlink:href="#v1" href="#v1" y="480"/><use xlink:href="#v1" href="#v1" y="496"/><use xlink:href="#v1" href="#v1" y="512"/><use xlink:href="#v1" href="#v1" y="528"/><use xlink:href="#v2" href="#v2" y="544"/><use xlink:href="#v2" href="#v2" y="560"/><use xlink:href="#v2" href="#v2" y="576"/><use xlink:href="#v2" href="#v2" y="592"/><use xlink:href="#v2" href="#v2" y="608"/><use xlink:href="#v2" href="#v2" y="624"/><use xlink:href="#v2" href="#v2" y="640"/><use xlink:href="#v2" href="#v2" y="656"/><use xlink:href="#v2" href="#v2" y="672"/><use xlink:href="#v2" href="#v2" y="688"/><use xlink:href="#v2" href="#v2" y="704"/><use xlink:href="#v2" href="#v2" y="720"/><use xlink:href="#v2" href="#v2" y="736"/><use xlink:href="#v2" href="#v2" y="752"/><use xlink:href="#v2" href="#v2" y="768"/><use xlink:href="#v2" href="#v2" y="784"/><use xlink:href="#v2" href="#v2" y="800"/><use xlink:href="#v2" href="#v2" y="816"/><use xlink:href="#v2" href="#v2" y="832"/><use xlink:href="#v2" href="#v2" y="848"/><use xlink:href="#v2" href="#v2" y="864"/><use xlink:href="#v2" href="#v2" y="880"/><use xlink:href="#v2" href="#v2" y="896"/><use xlink:href="#v2" href="#v2" y="912"/><use xlink:href="#v2" href="#v2" y="928"/><use xlink:href="#v2" href="#v2" y="944"/><use xlink:href="#v2" href="#v2" y="960"/><use xlink:href="#v2" href="#v2" y="976"/><use xlink:href="#v2" href="#v2" y="992"/><use xlink:href="#v2" href="#v2" y="1008"/><use xlink:href="#v2" href="#v2" y="1024"/><use xlink:href="#v2" href="#v2" y="1040"/><use xlink:href="#v2" href="#v2" y="1056"/><use xlink:href="#v3" href="#v3" y="1072"/><use xlink:href="#v3" href="#v3" y="1088"/><use xlink:href="#v3" href="#v3" y="1104"/><use xlink:href="#v3" href="#v3" y="1120"/><use xlink:href="#v3" href="#v3" y="1136"/><use xlink:href="#v3" href="#v3" y="1152"/><use xlink:href="#v3" href="#v3" y="1168"/><use xlink:href="#v3" href="#v3" y="1184"/><use xlink:href="#v3" href="#v3" y="1200"/><use xlink:href="#v3" href="#v3" y="1216"/><use xlink:href="#v3" href="#v3" y="1232"/><use xlink:href="#v3" href="#v3" y="1248"/><use xlink:href="#v3" href="#v3" y="1264"/><use xlink:href="#v3" href="#v3" y="1280"/><use xlink:href="#v3" href="#v3" y="1296"/><use xlink:href="#v3" href="#v3" y="1312"/><use xlink:href="#v3" href="#v3" y="1328"/><use xlink:href="#v3" href="#v3" y="1344"/><use xlink:href="#v3" href="#v3" y="1360"/><use xlink:href="#v3" href="#v3" y="1376"/><use xlink:href="#v3" href="#v3" y="1392"/><use xlink:href="#v3" href="#v3" y="1408"/><use xlink:href="#v3" href="#v3" y="1424"/><use xlink:href="#v3" href="#v3" y="1440"/><use xlink:href="#v3" href="#v3" y="1456"/><use xlink:href="#v3" href="#v3" y="1472"/><use xlink:href="#v3" href="#v3" y="1488"/><use xlink:href="#v3" href="#v3" y="1504"/><use xlink:href="#v3" href="#v3" y="1520"/><use xlink:href="#v3" href="#v3" y="1536"/><use xlink:href="#v3" href="#v3" y="1552"/><use xlink:href="#v3" href="#v3" y="1568"/><use xlink:href="#v3" href="#v3" y="1584"/><use xlink:href="#v3" href="#v3" y="1600"/>
</svg>
