<svg xmlns="http://www.w3.org/2000/svg" xmlns:xlink="http://www.w3.org/1999/xlink" width="16" height="240" viewBox="0 0 32 480">
<defs><linearGradient id="vh" gradientUnits="userSpaceOnUse" x1="9.5" y1="0" x2="14.5" y2="0"><stop offset="0" stop-color="#FAFAFA" stop-opacity="0.46"/><stop offset="0.2" stop-color="#F3F3F3"/><stop offset="0.4" stop-color="#E1E1E1"/><stop offset="0.6" stop-color="#DFDFDF"/><stop offset="0.8" stop-color="#C7C7C7"/><stop offset="1" stop-color="#C0C0C0" stop-opacity="0.65"/></linearGradient><linearGradient id="vs" gradientUnits="userSpaceOnUse" x1="0" y1="0" x2="0" y2="1"><stop offset="0" stop-color="#000000" stop-opacity="0"/><stop offset="1" stop-color="#000000" stop-opacity="0.2"/></linearGradient></defs>
<g transform="translate(0,0)"></g>
<g transform="translate(0,32)"><g transform="translate(7,0)"><rect x="9" y="24.5" width="6" height="2.9" rx="1" fill="url(#vh)"/><rect x="10" y="25" width="4" height="1" fill="#FFFFFF" fill-opacity="0.85"/><rect x="9.5" y="26" width="5" height="1.4" fill="#000000" fill-opacity="0.12"/></g></g>
<g transform="translate(0,64)"><g transform="translate(7,0)"><rect x="9" y="23.5" width="6" height="3.9" rx="1" fill="url(#vh)"/><rect x="10" y="24" width="4" height="1" fill="#FFFFFF" fill-opacity="0.85"/><rect x="9.5" y="25" width="5" height="2.4" fill="#000000" fill-opacity="0.12"/></g></g>
<g transform="translate(0,96)"><g transform="translate(7,0)"><rect x="9" y="22.5" width="6" height="4.9" rx="1" fill="url(#vh)"/><rect x="10" y="23" width="4" height="1" fill="#FFFFFF" fill-opacity="0.85"/><rect x="9.5" y="24.5" width="5" height="2.9" fill="#000000" fill-opacity="0.12"/></g></g>
<g transform="translate(0,128)"><g transform="translate(7,0)"><rect x="9" y="21.5" width="6" height="5.9" rx="1" fill="url(#vh)"/><rect x="10" y="22" width="4" height="1" fill="#FFFFFF" fill-opacity="0.85"/><rect x="9.5" y="24.5" width="5" height="2.9" fill="#000000" fill-opacity="0.12"/></g></g>
<g transform="translate(0,160)"><g transform="translate(7,0)"><rect x="9" y="19.5" width="6" height="7.9" rx="1" fill="url(#vh)"/><rect x="10" y="20" width="4" height="1" fill="#FFFFFF" fill-opacity="0.85"/><rect x="9.5" y="24.5" width="5" height="2.9" fill="#000000" fill-opacity="0.12"/></g></g>
<g transform="translate(0,192)"><g transform="translate(7,0)"><rect x="9" y="18.5" width="6" height="8.9" rx="1" fill="url(#vh)"/><rect x="10" y="19" width="4" height="1" fill="#FFFFFF" fill-opacity="0.85"/><rect x="9.5" y="24.5" width="5" height="2.9" fill="#000000" fill-opacity="0.12"/></g></g>
<g transform="translate(0,224)"><g transform="translate(7,0)"><rect x="9" y="16.5" width="6" height="10.9" rx="1" fill="url(#vh)"/><rect x="10" y="17" width="4" height="1" fill="#FFFFFF" fill-opacity="0.85"/><rect x="9.5" y="24.5" width="5" height="2.9" fill="#000000" fill-opacity="0.12"/></g></g>
<g transform="translate(0,256)"><g transform="translate(7,0)"><rect x="9" y="14.5" width="6" height="12.9" rx="1" fill="url(#vh)"/><rect x="10" y="15" width="4" height="1" fill="#FFFFFF" fill-opacity="0.85"/><rect x="9.5" y="24.5" width="5" height="2.9" fill="#000000" fill-opacity="0.12"/></g></g>
<g transform="translate(0,288)"><g transform="translate(7,0)"><rect x="9" y="12.5" width="6" height="14.9" rx="1" fill="url(#vh)"/><rect x="10" y="13" width="4" height="1" fill="#FFFFFF" fill-opacity="0.85"/><rect x="9.5" y="24.5" width="5" height="2.9" fill="#000000" fill-opacity="0.12"/></g></g>
<g transform="translate(0,320)"><g transform="translate(7,0)"><rect x="9" y="10.5" width="6" height="16.9" rx="1" fill="url(#vh)"/><rect x="10" y="11" width="4" height="1" fill="#FFFFFF" fill-opacity="0.85"/><rect x="9.5" y="24.5" width="5" height="2.9" fill="#000000" fill-opacity="0.12"/></g></g>
<g transform="translate(0,352)"><g transform="translate(7,0)"><rect x="9" y="8.5" width="6" height="18.9" rx="1" fill="url(#vh)"/><rect x="10" y="9" width="4" height="1" fill="#FFFFFF" fill-opacity="0.85"/><rect x="9.5" y="24.5" width="5" height="2.9" fill="#000000" fill-opacity="0.12"/></g></g>
<g transform="translate(0,384)"><g transform="translate(7,0)"><rect x="9" y="7.5" width="6" height="19.9" rx="1" fill="url(#vh)"/><rect x="10" y="8" width="4" height="1" fill="#FFFFFF" fill-opacity="0.85"/><rect x="9.5" y="24.5" width="5" height="2.9" fill="#000000" fill-opacity="0.12"/></g></g>
<g transform="translate(0,416)"><g transform="translate(7,0)"><rect x="9" y="5.5" width="6" height="21.9" rx="1" fill="url(#vh)"/><rect x="10" y="6" width="4" height="1" fill="#FFFFFF" fill-opacity="0.85"/><rect x="9.5" y="24.5" width="5" height="2.9" fill="#000000" fill-opacity="0.12"/></g></g>
<g transform="translate(0,448)"><g transform="translate(7,0)"><rect x="9" y="4.5" width="6" height="22.9" rx="1" fill="url(#vh)"/><rect x="10" y="5" width="4" height="1" fill="#FFFFFF" fill-opacity="0.85"/><rect x="9.5" y="24.5" width="5" height="2.9" fill="#000000" fill-opacity="0.12"/></g></g>
</svg>
